<!-- icon666.com - MILLIONS vector ICONS FREE --><svg version="1.1" id="Capa_1" xmlns="http://www.w3.org/2000/svg" xmlns:xlink="http://www.w3.org/1999/xlink" x="0px" y="0px" viewBox="0 0 216.424 216.424" style="enable-background:new 0 0 216.424 216.424;" xml:space="preserve"><path d="M154.058,206.716c0,5.362-4.347,9.709-9.708,9.709H72.074c-5.362,0-9.708-4.347-9.708-9.709 c0-5.362,4.347-9.709,9.708-9.709h13.406c4.608,6.229,13.071,10.415,22.732,10.415s18.123-4.186,22.731-10.415h13.406 C149.712,197.007,154.058,201.354,154.058,206.716z M112.463,0h-8.5C91.908,0,82.101,9.807,82.101,21.861v36.515h52.222V21.861 C134.323,9.807,124.516,0,112.463,0z M194.119,40.345c-2.762,0-5,2.239-5,5v3.233c0,1.905-1.55,3.455-3.455,3.455H168.88 c-1.905,0-3.455-1.55-3.455-3.455v-3.233c0-2.761-2.238-5-5-5s-5,2.239-5,5v3.233c0,7.419,6.036,13.455,13.455,13.455h0.041 c0.012,0,1.267,0.141,2.075,1.227c0.762,1.022,1.155,3.462,1.213,5.245v6.538c0,1.905-1.55,3.455-3.455,3.455l-9.851,0.209 c-2.572-5.71-8.301-9.692-14.97-9.692H72.491c-6.669,0-12.397,3.982-14.969,9.692l-9.745-0.208l-0.106-0.001 c-1.905,0-3.455-1.55-3.455-3.455v-6.511c0.052-1.616,0.395-4.173,1.212-5.271c0.835-1.12,2.078-1.221,2.217-1.229l-0.084,0.001 C54.972,62.024,61,55.992,61,48.578v-3.233c0-2.761-2.238-5-5-5s-5,2.239-5,5v3.233c0,1.905-1.55,3.455-3.455,3.455H30.76 c-1.905,0-3.455-1.55-3.455-3.455v-3.233c0-2.761-2.238-5-5-5s-5,2.239-5,5v3.233c0,6.121,4.112,11.29,9.716,12.916 c0.67,0.334,1.416,0.539,2.216,0.539h1.522c1.905,0,3.455,1.55,3.455,3.455v2.782c-0.015,0.568-0.009,1.009,0,1.29v5.482 c0,7.4,6.004,13.423,13.396,13.455l8.482,0.181c0.275,8.829,7.501,15.907,16.397,15.907h5.569 c1.989,8.621,11.614,15.495,23.966,17.241v54.036c-5.94,1.707-10.237,5.757-10.237,10.349c0,6.077,7.521,11.211,16.423,11.211 c8.901,0,16.422-5.134,16.422-11.211c0-4.592-4.297-8.642-10.237-10.349v-54.036c12.352-1.747,21.977-8.62,23.966-17.241h5.569 c8.896,0,16.122-7.078,16.397-15.907l8.482-0.181c7.393-0.032,13.396-6.055,13.396-13.455V69.56c0.009-0.281,0.015-0.722,0-1.29 v-2.782c0-1.905,1.55-3.455,3.455-3.455h1.522c0.8,0,1.546-0.205,2.216-0.539c5.604-1.625,9.716-6.795,9.716-12.916v-3.233 C199.119,42.583,196.881,40.345,194.119,40.345z"></path></svg>